# xmcd
#
# Track frame offsets:
#	150
#	11874
#	24298
#	35113
#	46291
#	55969
#	66431
#	76799
#	88434
#	98064
#	109516
#	119826
#	132948
#	145403
#	155358
#	167978
#	178903
#	189074
#	200107
#	210295
#	221925
#	232287
#	243159
#	251664
#	262450
#	272173
#	284574
#	293564
#	305643
#	315575
#
# Disc length: 4373 seconds
#
# Revision: 0
# Processed by: cddbd v1.5.2PL0 Copyright (c) Steve Scherf et al.
# Submitted via: FairStars CD Ripper 1.80
#
DISCID=d911131e
DTITLE=Various Artist - Soul For Dancers 2 cd1
DYEAR=2016
DGENRE=Soul
TTITLE0=Bobby Bland - Turn On Your Love Light
TTITLE1=Bobby Parker - Watch Your Step
TTITLE2=Gino Parks - Same Things
TTITLE3=Chris Kenner - Land Of 1000 Dances
TTITLE4=Lee Dorsey - Behind The 8-Ball
TTITLE5=Jessie Hill - Ooh Poo Pah Doo" (part I)
TTITLE6=Jessie Hill - Ooh Poo Pah Doo" (part II)
TTITLE7=Solomon Burke - Down In The Valley
TTITLE8=Rosco Gordon - Just A Little Bit
TTITLE9=The Mar-Keys - Sack-O-Woe
TTITLE10=James Brown and The Famous Flames - Good Good Lovin
TTITLE11=The 5 Royales - Don't Give No More Than You Can Take
TTITLE12=Marvin Gaye - Never Let You Go
TTITLE13=Ann Cole - You're Mine
TTITLE14=Rufus Thomas - The Easy Livin' Plan
TTITLE15=Etta James - Baby, Baby Every Night
TTITLE16=The Chips - You Make Me Feel So Good
TTITLE17=Barbara Stephens - Wait A Minute
TTITLE18=The Mar-Keys - One Degree North
TTITLE19=Oscar Brown Jr - Work Song
TTITLE20=Della Reese - Ninety Nine and A Half Won't Do
TTITLE21=Ann Cole - Each Day
TTITLE22=Carla Thomas - For You
TTITLE23=The 5 Royales - Tell The Truth
TTITLE24=Lula Reed - Rock Love
TTITLE25=Jackie Wilson - Lonely Teardrops
TTITLE26=Danny Owens - You're A Little Too Late
TTITLE27=Lula Reed - You Gotta Have That Green
TTITLE28=Doris Payne (Doris Troy) - You Better Mind
TTITLE29=Arthur Alexander - You Better Move On
EXTD=
EXTT0=
EXTT1=
EXTT2=
EXTT3=
EXTT4=
EXTT5=
EXTT6=
EXTT7=
EXTT8=
EXTT9=
EXTT10=
EXTT11=
EXTT12=
EXTT13=
EXTT14=
EXTT15=
EXTT16=
EXTT17=
EXTT18=
EXTT19=
EXTT20=
EXTT21=
EXTT22=
EXTT23=
EXTT24=
EXTT25=
EXTT26=
EXTT27=
EXTT28=
EXTT29=
PLAYORDER=
